<svg width="1046" height="769" viewBox="0 0 1046 769" fill="none" xmlns="http://www.w3.org/2000/svg">
<path d="M246.052 101.153C235.541 112.044 227.388 123.281 222.366 134.378" stroke="#2D2D2D" stroke-linecap="round" stroke-linejoin="round"/>
<path d="M719.545 95.4645C703.004 82.624 683.034 72.6556 665.06 72.6556C634.346 72.6556 633.847 86.9228 603.919 86.9228C557.779 86.9228 523.54 19.1674 434.806 19.1674C393.507 19.1674 346.687 34.0408 307.023 55.8892" stroke="#2D2D2D" stroke-linecap="round" stroke-linejoin="round"/>
<path d="M921.718 58.1553C901.546 46.8068 877.988 39.5053 851.329 39.5053C743.814 39.5053 690.699 147.871 620.332 147.871C555.836 147.871 550.75 119.187 470.913 119.187C436.228 119.187 377.083 145.213 341.517 180.322" stroke="#2D2D2D" stroke-linecap="round" stroke-linejoin="round"/>
<path d="M634.675 289.49C634.231 287.63 634.067 285.727 634.187 283.83C634.516 277.796 637.276 273.003 640.355 273.134C640.863 273.186 641.352 273.337 641.786 273.573C642.221 273.81 642.591 274.128 642.871 274.505" stroke="#2D2D2D" stroke-linecap="round" stroke-linejoin="round"/>
<path d="M626.681 337.98C627.403 330.1 631.585 299.076 634.993 288.417" stroke="#2D2D2D" stroke-miterlimit="10" stroke-linecap="round"/>
<path d="M576.347 400.663V582.388H593.472L613.155 485.166C613.155 485.166 615.862 432.573 576.347 400.663Z" fill="#2D2D2D"/>
<path d="M632.753 397.082C633.231 402.322 639.187 497.68 639.187 497.68V584.505L621.616 586.155L610.32 493.838L576.347 400.662C581.485 398.182 619.122 393.51 632.753 397.082Z" fill="#2D2D2D"/>
<path d="M631.692 357.264C635.397 376.082 634.77 394.89 632.828 397.082C628.804 401.623 580.806 404.7 576.389 400.653C572.398 396.988 561.781 331.807 590.786 319.255" stroke="#2D2D2D" stroke-miterlimit="10" stroke-linecap="round"/>
<path d="M603.918 317.316C614.153 318.491 621.192 326.92 625.906 337.896" stroke="#2D2D2D" stroke-miterlimit="10" stroke-linecap="round"/>
<path d="M641.098 291.858C640.015 289.295 639.566 286.558 639.782 283.83C640.111 277.796 642.871 273.003 645.95 273.134C649.029 273.264 651.258 278.263 650.908 284.324C650.823 286.926 650.148 289.488 648.922 291.858" stroke="#2D2D2D" stroke-miterlimit="10" stroke-linecap="round"/>
<path d="M625.382 285.124L621.334 285.683L621.969 289.238L626.017 288.68L625.382 285.124Z" fill="#2D2D2D"/>
<path d="M603.918 310.415V317.176" stroke="#2D2D2D" stroke-linecap="round" stroke-linejoin="round"/>
<path d="M601.318 325.307C597.474 326.137 590.701 325.708 590.701 323.731V299.02" stroke="#2D2D2D" stroke-linecap="round" stroke-linejoin="round"/>
<path d="M615.331 282.235C616.691 285.308 617.375 288.58 617.349 291.877C617.349 302.135 611.159 310.434 603.547 310.434C601.146 310.395 598.836 309.62 597.018 308.242" stroke="#2D2D2D" stroke-miterlimit="10" stroke-linecap="round"/>
<path d="M592.283 298.852C591.865 298.958 591.432 299.011 590.998 299.011C590.291 299.012 589.593 298.87 588.958 298.595C588.323 298.321 587.769 297.922 587.339 297.429C586.909 296.936 586.614 296.362 586.478 295.752C586.341 295.143 586.367 294.514 586.552 293.914C586.738 293.315 587.078 292.761 587.547 292.296C588.016 291.831 588.601 291.467 589.256 291.233C589.911 290.999 590.619 290.901 591.324 290.946C592.03 290.991 592.714 291.179 593.323 291.495" stroke="#2D2D2D" stroke-linecap="round" stroke-linejoin="round"/>
<path d="M571.124 331.574C571.124 325.1 565.149 319.852 557.778 319.852C550.408 319.852 544.433 325.1 544.433 331.574V387.029C544.433 393.503 550.408 398.751 557.778 398.751C565.149 398.751 571.124 393.503 571.124 387.029V331.574Z" fill="#2D2D2D"/>
<path d="M610.214 356.061C607.475 370.366 594.289 381.239 578.492 381.239C560.677 381.239 546.238 367.503 546.238 350.569C546.238 333.634 560.677 319.889 578.492 319.889C583.343 319.934 588.116 320.968 592.435 322.91C596.753 324.852 600.499 327.649 603.377 331.079" stroke="#2D2D2D" stroke-miterlimit="10" stroke-linecap="round"/>
<path d="M616.828 337.253C622.073 337.495 630.205 338.11 634.165 339.36C634.59 337.001 636.99 303.207 641.077 291.886" stroke="#2D2D2D" stroke-linecap="round" stroke-linejoin="round"/>
<path d="M648.976 291.858C648.976 293.201 658.01 348.629 648.976 355.203C641.894 360.35 621.532 356.052 612.454 353.543" stroke="#2D2D2D" stroke-linecap="round" stroke-linejoin="round"/>
<path d="M583.556 335.098C586.55 324.393 613.665 333.299 616.117 335.742C619.058 338.67 613.803 355.175 609.747 355.94C603.133 357.199 579.67 348.983 583.556 335.098Z" stroke="#2D2D2D" stroke-miterlimit="10" stroke-linecap="round"/>
<path d="M345.976 442.327H414.188L282.807 -31.4114L229.299 161.542" stroke="#2D2D2D" stroke-miterlimit="10" stroke-linecap="round"/>
<path d="M273.496 334.772L180.08 -31.4114L48.6986 483.562H209.785" stroke="#2D2D2D" stroke-miterlimit="10" stroke-linecap="round"/>
<path d="M180.791 481.268V18.6732" stroke="#FB7B6B" stroke-width="2.39" stroke-linecap="round" stroke-linejoin="round"/>
<path d="M180.791 171.221L209.339 143.964" stroke="#FB7B6B" stroke-width="2.39" stroke-linecap="round" stroke-linejoin="round"/>
<path d="M180.791 301.762L223.693 260.806" stroke="#FB7B6B" stroke-width="2.39" stroke-linecap="round" stroke-linejoin="round"/>
<path d="M180.791 437.944L201.727 417.96" stroke="#FB7B6B" stroke-width="2.39" stroke-linecap="round" stroke-linejoin="round"/>
<path d="M180.791 171.221L152.243 143.964" stroke="#FB7B6B" stroke-width="2.39" stroke-linecap="round" stroke-linejoin="round"/>
<path d="M180.791 301.762L137.9 260.806" stroke="#FB7B6B" stroke-width="2.39" stroke-linecap="round" stroke-linejoin="round"/>
<path d="M180.791 437.944L114.065 374.236" stroke="#FB7B6B" stroke-width="2.39" stroke-linecap="round" stroke-linejoin="round"/>
<path d="M274.122 334.772H274.112C234.422 334.772 202.247 363.032 202.247 397.893V455.503C202.247 490.364 234.422 518.624 274.112 518.624H274.122C313.812 518.624 345.987 490.364 345.987 455.503V397.893C345.987 363.032 313.812 334.772 274.122 334.772Z" stroke="#FB7B6B" stroke-width="2.39" stroke-linecap="round" stroke-linejoin="round"/>
<path d="M274.112 566.592V392.13" stroke="#FB7B6B" stroke-width="2.39" stroke-linecap="round" stroke-linejoin="round"/>
<path d="M274.112 466.32C313.393 466.32 313.393 445.544 313.393 414.1" stroke="#FB7B6B" stroke-width="2.39" stroke-linecap="round" stroke-linejoin="round"/>
<path d="M274.112 434.54C246.88 434.54 246.88 420.114 246.88 398.322" stroke="#FB7B6B" stroke-width="2.39" stroke-linecap="round" stroke-linejoin="round"/>
<path d="M797.174 442.327H894.698" stroke="#2D2D2D" stroke-linecap="round" stroke-linejoin="round"/>
<path d="M978.198 442.327H1223.44V272.509C1223.38 252.425 1214.26 233.181 1198.09 218.98C1181.93 204.779 1160.02 196.774 1137.15 196.715V196.715C1132.5 196.718 1127.86 197.048 1123.28 197.704V2.27985C1123.28 -11.4791 1117.05 -24.6747 1105.98 -34.4046C1094.9 -44.1345 1079.88 -49.602 1064.21 -49.6044V-49.6044C1048.55 -49.6044 1033.52 -44.1381 1022.45 -34.4079C1011.37 -24.6777 1005.14 -11.4807 1005.14 2.27985V44.1118C996.256 41.4516 986.93 40.0938 977.54 40.0927V40.0927C954.673 40.1518 932.761 48.1574 916.593 62.3607C900.424 76.564 891.312 95.8105 891.248 115.896V255.193H853.665C838.044 255.234 823.076 260.703 812.03 270.405C800.985 280.107 794.758 293.254 794.71 306.974V427.574C794.712 432.571 795.541 437.54 797.174 442.327" stroke="#2D2D2D" stroke-linecap="round" stroke-linejoin="round"/>
<path d="M1061.93 391.785C1008.42 391.785 1008.42 370.748 1008.42 338.94" stroke="#FB7B6B" stroke-width="2.39" stroke-linecap="round" stroke-linejoin="round"/>
<path d="M1061.84 244.795L1008.52 197.956" stroke="#FB7B6B" stroke-width="2.39" stroke-linecap="round" stroke-linejoin="round"/>
<path d="M1076.68 560.26C1069.11 539.055 1029.3 522.876 981.33 522.876C927.95 522.876 884.719 542.897 884.719 567.636H1058.13" stroke="#2D2D2D" stroke-linecap="round" stroke-linejoin="round"/>
<path d="M533.763 588.962C520.44 588.962 509.632 597.131 509.632 607.211H557.906C557.906 597.131 547.098 588.962 533.763 588.962Z" stroke="#2D2D2D" stroke-linecap="round" stroke-linejoin="round"/>
<path d="M884.687 491.525C871.352 491.525 860.555 503.648 860.555 518.624H908.787C908.787 503.657 898.011 491.525 884.687 491.525Z" stroke="#2D2D2D" stroke-linecap="round" stroke-linejoin="round"/>
<path d="M128.324 558.786C107.09 558.786 89.9338 564.857 89.9338 572.336H166.682C166.682 564.857 149.525 558.786 128.324 558.786Z" stroke="#2D2D2D" stroke-linecap="round" stroke-linejoin="round"/>
<path d="M936.454 346.158H936.443C910.744 346.158 889.91 364.457 889.91 387.029V424.329C889.91 446.902 910.744 465.201 936.443 465.201H936.454C962.153 465.201 982.986 446.902 982.986 424.329V387.029C982.986 364.457 962.153 346.158 936.454 346.158Z" stroke="#2D2D2D" stroke-linecap="round" stroke-linejoin="round"/>
<path d="M936.454 496.272V383.299" stroke="#FB7B6B" stroke-width="2.39" stroke-linecap="round" stroke-linejoin="round"/>
<path d="M936.454 431.342C961.87 431.342 961.87 417.886 961.87 397.529" stroke="#FB7B6B" stroke-width="2.39" stroke-linecap="round" stroke-linejoin="round"/>
<path d="M936.454 410.761C918.82 410.761 918.82 401.436 918.82 387.3" stroke="#FB7B6B" stroke-width="2.39" stroke-linecap="round" stroke-linejoin="round"/>
<path d="M352.165 533.684H438.203" stroke="#FB7B6B" stroke-width="2.39" stroke-linecap="round" stroke-linejoin="round"/>
<path d="M709.618 483.562H766.672" stroke="#FB7B6B" stroke-width="2.39" stroke-linecap="round" stroke-linejoin="round"/>
<path d="M666.589 496.272H723.653" stroke="#FB7B6B" stroke-width="2.39" stroke-linecap="round" stroke-linejoin="round"/>
<path d="M124.088 506.632H181.152" stroke="#FB7B6B" stroke-width="2.39" stroke-linecap="round" stroke-linejoin="round"/>
<path d="M794.71 581.791H874.919" stroke="#FB7B6B" stroke-width="2.39" stroke-linecap="round" stroke-linejoin="round"/>
<path d="M586.348 289.014C584.14 287.448 583.885 275.959 589.459 272.033C595.032 268.108 611.329 265.04 618.4 259.696" stroke="#2D2D2D" stroke-miterlimit="10" stroke-linecap="round"/>
<path d="M613.643 270.234C615.268 269.012 620.374 262.018 621.234 260.135" stroke="#2D2D2D" stroke-miterlimit="10" stroke-linecap="round"/>
<path d="M618.474 272.798C620.254 270.552 621.503 268.016 622.147 265.338" stroke="#2D2D2D" stroke-miterlimit="10" stroke-linecap="round"/>
<path d="M650.908 284.305C650.838 285.559 650.654 286.807 650.356 288.035L658.977 287.41L656.662 275.111L649.91 276.976C650.747 279.345 651.085 281.829 650.908 284.305Z" fill="#2D2D2D"/>
<path d="M639.782 283.83C639.86 282.42 640.08 281.018 640.44 279.643L624.515 284.063L625.576 289.863L640.1 288.809C639.783 287.165 639.676 285.495 639.782 283.83Z" fill="#2D2D2D"/>
<path d="M577.865 582.388V603.519H612.168L587.675 590.128V581.689" stroke="#2D2D2D" stroke-linecap="round" stroke-linejoin="round"/>
<path d="M625.088 582.388V603.519H659.391L634.887 590.128V581.689" stroke="#2D2D2D" stroke-linecap="round" stroke-linejoin="round"/>
<path d="M609.471 289.014C609.471 290.124 610.044 293.602 612.752 295.383" stroke="#2D2D2D" stroke-miterlimit="10" stroke-linecap="round"/>
<path d="M605.723 298.451C606.043 298.982 606.523 299.426 607.111 299.732C607.7 300.038 608.373 300.195 609.057 300.186" stroke="#2D2D2D" stroke-miterlimit="10" stroke-linecap="round"/>
</svg>
